<?xml version="1.0" encoding="UTF-8"?>
<!DOCTYPE svg PUBLIC "-//W3C//DTD SVG 1.1//EN" "http://www.w3.org/Graphics/SVG/1.1/DTD/svg11.dtd">
<!-- Creator: CorelDRAW 2019 (64 Bit) -->
<svg xmlns="http://www.w3.org/2000/svg" xml:space="preserve" width="5.9714mm" height="43.3603mm" version="1.1" style="shape-rendering:geometricPrecision; text-rendering:geometricPrecision; image-rendering:optimizeQuality; fill-rule:evenodd; clip-rule:evenodd"
viewBox="0 0 39.38 285.93"
 xmlns:xlink="http://www.w3.org/1999/xlink">
 <defs>
  <style type="text/css">
   <![CDATA[
    .fil0 {fill:#1E5382}
   ]]>
  </style>
 </defs>
 <g id="Camada_x0020_1">
  <metadata id="CorelCorpID_0Corel-Layer"/>
  <path class="fil0" d="M39.26 0.01l0 193.59c0,9.42 -0.01,18.84 -0.28,28.26 -2.42,16.86 8,66.1 -14.17,64.01 -23.17,-2.18 -25.24,-10.88 -24.75,-20.4 0.65,-12.65 8.34,-12.43 15.86,-25.99 2.09,-3.77 3.87,-8.17 5.39,-13.13 4.06,-13.26 5.58,-26.61 6.11,-40.07 0.93,-23.65 0.13,-48.44 0.13,-72.24l0 -77.93 0 -8.9c0,-5.63 -0.39,-13.42 0.31,-18.63 0.7,-5.17 3.18,-8.78 11.4,-8.57z"/>
 </g>
</svg>
