<?xml version="1.0" encoding="UTF-8"?>
<!DOCTYPE svg PUBLIC "-//W3C//DTD SVG 1.1//EN" "http://www.w3.org/Graphics/SVG/1.1/DTD/svg11.dtd">
<!-- Creator: CorelDRAW 2019 (64 Bit) -->
<svg xmlns="http://www.w3.org/2000/svg" xml:space="preserve" width="5.9536mm" height="43.43mm" version="1.1" style="shape-rendering:geometricPrecision; text-rendering:geometricPrecision; image-rendering:optimizeQuality; fill-rule:evenodd; clip-rule:evenodd"
viewBox="0 0 33.44 243.92"
 xmlns:xlink="http://www.w3.org/1999/xlink">
 <defs>
  <style type="text/css">
   <![CDATA[
    .fil0 {fill:#136A81}
   ]]>
  </style>
 </defs>
 <g id="Camada_x0020_1">
  <metadata id="CorelCorpID_0Corel-Layer"/>
  <path class="fil0" d="M33.44 0.01l0 164.88 0 4.45c0,6.57 -0.05,13.04 -0.24,19.61 -0.57,19.99 -1.4,43.89 -1.4,54.97 -29.8,0 -32.24,-8.44 -31.75,-17.82 0.56,-10.77 7.1,-10.58 13.51,-22.14 1.78,-3.21 3.3,-6.96 4.59,-11.18 3.46,-11.29 4.75,-22.66 5.2,-34.13 0.79,-20.15 0.11,-41.25 0.11,-61.53l0 -66.37 0 -7.58c0,-4.79 -0.34,-11.43 0.27,-15.86 0.6,-4.41 2.71,-7.48 9.71,-7.3z"/>
 </g>
</svg>
